<?xml version="1.0" encoding="iso-8859-1"?>
<!-- Generator: Adobe Illustrator 16.0.0, SVG Export Plug-In . SVG Version: 6.00 Build 0)  -->
<!DOCTYPE svg PUBLIC "-//W3C//DTD SVG 1.1//EN" "http://www.w3.org/Graphics/SVG/1.1/DTD/svg11.dtd">
<svg version="1.1" id="Capa_1"
  xmlns="http://www.w3.org/2000/svg"
  xmlns:xlink="http://www.w3.org/1999/xlink" x="0px" y="0px" width="16" height="16" viewBox="0 0 944.699 944.699" style="enable-background:new 0 0 944.699 944.699;" xml:space="preserve">
  <g>
    <path d="M894.801,579.05h-309.5l-41.5,47.199c-18,20.5-44.102,32.301-71.401,32.301c-27.3,0-53.4-11.801-71.4-32.301l-41.5-47.199
		H50c-27.6,0-50,22.4-50,50v198.5c0,27.6,22.4,50,50,50h844.699c27.602,0,50-22.4,50-50v-198.5
		C944.801,601.45,922.4,579.05,894.801,579.05z M139.2,770.95c-23.5,0-42.6-19.102-42.6-42.602s19.1-42.6,42.6-42.6
		s42.6,19.1,42.6,42.6S162.7,770.95,139.2,770.95z" display="block" fill="#fff" id="path2" style="fill:#ffffff"/>
    <path d="M419.4,579.05l15.4,17.6c10,11.301,23.8,17,37.6,17c13.799,0,27.6-5.699,37.6-17l15.4-17.6L734.1,341.25
		c28.4-32.3,5.4-83-37.6-83h-65.6v-141.1c0-27.6-22.4-50-50-50h-217c-27.6,0-50,22.4-50,50v141.2h-65.6c-43,0-65.9,50.7-37.6,83
		L419.4,579.05z" display="block" fill="#fff" id="path2" style="fill:#ffffff"/>
  </g>
</svg>
